<svg width="250" height="300" viewBox="0 0 250 300" fill="none" xmlns="http://www.w3.org/2000/svg">
<path d="M23.5405 267.282L0 0H250L228.814 267.282L126.177 300L23.5405 267.282Z" fill="url(#paint0_linear)"/>
<path d="M43.3962 83.2776L41.0377 54.1806H206.604L203.302 88.2943L135.849 119.398H200.472L196.226 196.154L193.396 220.234L127.358 243.311L90.566 231.773L73.5849 226.254L55.6604 220.234L51.8868 196.154V172.074H82.5472V185.619V200.167L100.472 203.177L120.283 206.689H130.189L141.038 203.177L161.321 196.154L162.736 174.08L164.151 151.505L49.0566 153.512V119.398L122.17 83.2776H43.3962Z" fill="white"/>
<defs>
<linearGradient id="paint0_linear" x1="125" y1="118.123" x2="125" y2="325.679" gradientUnits="userSpaceOnUse">
<stop stop-color="#1E6DDD"/>
<stop offset="0.586955" stop-color="#5B1EDD" stop-opacity="0.79"/>
</linearGradient>
</defs>
</svg>
