<svg width="154" height="154" viewBox="0 0 154 154" fill="none" xmlns="http://www.w3.org/2000/svg">
<path d="M127.74 22.3269L115.985 13.4218L109.107 9.48547L101.729 6.38803L92.6628 3.80684L83.4089 2.32265L73.7799 2L64.276 2.96795L55.1471 5.2265L45.5807 8.96923L34.8262 15.035L25.885 22.585L16.8812 32.7808L10.0033 44.0735L5.56399 54.9145L2.56273 66.3363L2 79.3714L2.81284 92.7936L5.56399 103.828L9.4406 113.572L15.4431 123.832L22.5085 132.738C22.5085 132.738 28.1336 138.76 35.2013 143.901C41.1681 148.242 48.4114 151.751 51.6457 152.548C58.7111 154.291 58.2734 150.096 58.2734 150.096V143.191V134.738L54.9596 135.383L51.6457 135.512H47.7065L44.0175 135.125L41.0788 134.093L38.2026 132.738L35.2013 130.027L33.8258 127.64L32.7003 125.059L30.0117 120.09L26.3852 115.508C26.3852 115.508 20.9454 113.217 21.9458 110.668C22.9462 108.119 30.0117 110.862 30.0117 110.862L31.8249 112.088L33.7632 113.83L35.3889 115.702L36.702 117.638L39.7032 121.703L42.0167 123.703L43.8925 124.671L45.5807 125.446L48.0192 125.962L50.5827 126.027L54.6469 125.446L58.7737 123.832L58.8362 122.994L58.8987 122.155L59.2739 120.671L59.7115 119.186L60.3368 117.767L61.5248 115.702L63.088 113.572L57.7732 112.733L54.0217 111.83L50.4577 110.862L47.644 109.571L44.9554 108.281L43.6424 107.442L42.3293 106.603L39.6407 104.474L37.8274 102.667L36.2643 100.924L34.8887 98.8594L33.7632 96.859L33.263 95.891L32.7628 94.8586L31.8249 92.7936L30.3868 87.6312L29.8866 85.1145L29.574 82.4043L29.2614 77.1128L29.3239 72.9184L29.5115 70.8534L29.8866 68.9175L31.0121 64.465L33.263 59.4962L35.0138 57.044L36.8895 54.7209L35.7015 50.2038L35.3889 47.7517L35.3264 45.235L36.0767 38.5239L37.7024 34.2004H41.5165L44.9554 35.0393L49.5823 36.9752L54.2093 39.1692L58.461 42.0085L61.7124 41.2342L67.0896 40.0727L77.0313 39.1692L87.0354 40.0727L95.9141 42.0085L98.5402 40.0727L103.792 36.9752L110.545 34.2004L113.609 33.7487L116.548 34.2004L117.798 38.4594L118.173 41.1051L118.549 43.8799V49.365L117.423 54.5274L120.424 59.109L122.738 63.3034L124.113 67.6915L124.614 72.4667L124.926 76.2739L124.614 80.1457L123.738 87.6312L122.55 92.2128L120.549 96.7299L117.861 100.795L114.422 104.667L107.544 109.442L98.4777 112.346L94.4135 112.991L90.4744 113.379L91.2872 114.476L92.6003 116.089L93.3506 117.573L94.4135 120.025L95.6015 125.575C95.6015 125.575 95.4139 148.999 95.6015 150.419C95.7891 151.838 98.5402 153 98.5402 153H100.916L103.042 152.226L109.17 149.515L119.486 143.321L129.678 134.803L138.057 124.607L143.246 115.96L147.373 106.474L150.812 92.9872L152 78.9842L150.687 65.4329L146.873 50.9782L142.809 42.2667L138.057 34.2004L127.74 22.3269Z" fill="url(#paint0_linear)" stroke="white" stroke-width="2"/>
<defs>
<linearGradient id="paint0_linear" x1="77" y1="61.4551" x2="77" y2="165.925" gradientUnits="userSpaceOnUse">
<stop stop-color="#1E6DDD"/>
<stop offset="0.586955" stop-color="#5B1EDD" stop-opacity="0.79"/>
</linearGradient>
</defs>
</svg>
