<svg width="152" height="152" viewBox="0 0 152 152" fill="none" xmlns="http://www.w3.org/2000/svg">
<path d="M4.00587 55.4721L1.73314 65.2229V65.3695L1.43988 67.4956L1.14663 70.868L1 73.7273V76.2199L1.14663 80.6188L1.43988 84.5044L2.17302 89.4164L3.27273 94.2551L4.95894 99.9003L7.52493 106.425L10.6041 112.51L13.4633 117.422L17.4223 122.554L20.9413 126.88L24.0938 130.106L28.0528 133.625L32.085 136.777L36.7038 139.783L41.0293 142.349L44.8416 144.255L49.607 146.308L52.5396 147.334L56.8651 148.581L60.5308 149.46L64.563 150.267L67.2757 150.56L68.9619 150.707L70.5015 150.853L72.4809 151H78.1261L83.1847 150.78L85.4575 150.56L87.6569 150.267L88.6833 150.047L89.563 149.9L90.8094 149.534L92.2757 149.24L94.3284 148.801L96.4545 148.287L97.6276 147.921L99.827 147.261L101.733 146.674L104.226 145.721L106.645 144.695L110.457 142.789L113.537 141.103L116.103 139.563L118.449 137.95L122.041 135.457L124.974 133.038L130.032 128.346L131.645 126.66L133.405 124.46L135.311 122.261L137.07 119.768L138.683 117.569L140.223 115.296L141.909 112.364L143.522 109.138L144.988 105.985L146.308 102.979L147.188 100.413L147.848 98.2874L148.507 96.088L149.387 93.0088L149.607 92.2023L149.9 91.0293L150.12 89.3431L150.413 87.3636L150.78 85.3108L151 81.4252V75.9267V72.4809V69.4751L150.34 65.0029L149.46 60.1642L147.554 52.7595L145.062 46.2346L142.422 40.8094L138.757 34.5777L132.232 26.0733L126.147 19.9883L118.522 13.9765L112.584 10.2375L105.619 6.8651L98.2141 4.15249L92.8622 2.6129L86.6305 1.5132L80.0323 1H72.5543L67.2757 1.5132L60.2375 2.6129L51 5.32551L43.6686 8.25806L36.6305 11.8504L29.5924 17.0557L21.9677 23.9472L18.8152 27.9062L14.8563 32.8915L11.044 38.8299L7.08504 47.261L4.00587 55.4721Z" fill="url(#paint0_linear)" stroke="white" stroke-width="2"/>
<path d="M43.1664 27.2204L40.3144 28.6162L38.5594 30.0119L37.2431 31.9219L36.2194 34.7135L36 37.5785L36.4388 39.562L37.17 41.3985L38.1207 43.0882L40.0219 44.9247L41.9232 45.8062L43.9707 46.4674L45.5795 46.6143H47.3346L50.479 45.4389L52.1609 44.337L53.2578 43.3085L54.3547 41.2516L55.159 39.1947L55.4516 37.4316V35.6685L54.7203 32.8035L53.8428 31.4077L52.5996 30.0119L51.4296 28.8365L49.894 28.0285L48.2852 27.3673L46.5302 27L43.1664 27.2204Z" fill="white" stroke="white" stroke-width="2"/>
<path d="M37.3163 107V54.1074H54.2084V107H37.3163Z" fill="white"/>
<path d="M64.8117 107V54.1074H80.1682V60.2048L81.4845 58.4417L84.9214 55.7971L90.1865 52.7117L96.1097 51.8301L101.74 52.7117L106.859 54.1074L111.247 58.4417L114.099 62.9963L115.049 66.8163L116 71.9587V107H99.4735V78.4233L98.5229 72.9137L95.6709 68.359L90.1865 66.8163L84.9214 68.359L81.4845 71.9587L80.1682 76.3664V107H64.8117Z" fill="white"/>
<path d="M37.3163 107V54.1074H54.2084V107H37.3163Z" stroke="white" stroke-width="2"/>
<path d="M64.8117 107V54.1074H80.1682V60.2048L81.4845 58.4417L84.9214 55.7971L90.1865 52.7117L96.1097 51.8301L101.74 52.7117L106.859 54.1074L111.247 58.4417L114.099 62.9963L115.049 66.8163L116 71.9587V107H99.4735V78.4233L98.5229 72.9137L95.6709 68.359L90.1865 66.8163L84.9214 68.359L81.4845 71.9587L80.1682 76.3664V107H64.8117Z" stroke="white" stroke-width="2"/>
<defs>
<linearGradient id="paint0_linear" x1="76" y1="60.0614" x2="76" y2="163.839" gradientUnits="userSpaceOnUse">
<stop stop-color="#1E6DDD"/>
<stop offset="0.586955" stop-color="#5B1EDD" stop-opacity="0.79"/>
</linearGradient>
</defs>
</svg>
