<svg width="59" height="74" viewBox="0 0 59 74" fill="none" xmlns="http://www.w3.org/2000/svg">
<path d="M26.4904 72.3542L15.9036 37.9445L14.4729 33.2945L45.9824 24L47.4131 28.6499L21.9571 36.1588L26.4637 50.8062L51.9196 43.2973L57.9999 63.0597L26.4904 72.3542Z" stroke="url(#paint0_linear)"/>
<path d="M4.86606 17.3854L14.1537 32.3339L43.9023 23.404L43.1772 5.88516L39.7767 12.6806L32.7701 5.86403L30.0208 16.0731L23.9483 11.6573L21.018 18.7756L13.1986 11.739L11.6237 21.5956L4.86606 17.3854Z" fill="#BBBE28" stroke="#BBBE28"/>
<path d="M3.5 13L5 13.5L6 14.5V15.5V16.5L5.5 17L5 17.5L3.5 18L2 17.5L1 16.5V15.5L1.5 14L2 13.5L3.5 13Z" stroke="#BBBE28"/>
<path d="M12.5 7L14 7.5L15 8.5V9.5V10.5L14.5 11L14 11.5L12.5 12L11 11.5L10 10.5V9.5L10.5 8L11 7.5L12.5 7Z" stroke="#BBBE28"/>
<path d="M22.5 6L24 6.5L25 7.5V8.5V9.5L24.5 10L24 10.5L22.5 11L21 10.5L20 9.5V8.5L20.5 7L21 6.5L22.5 6Z" stroke="#BBBE28"/>
<path d="M31.5 1L33 1.5L34 2.5V3.5V4.5L33.5 5L33 5.5L31.5 6L30 5.5L29 4.5V3.5L29.5 2L30 1.5L31.5 1Z" stroke="#BBBE28"/>
<path d="M42.5 1L44 1.5L45 2.5V3.5V4.5L44.5 5L44 5.5L42.5 6L41 5.5L40 4.5V3.5L40.5 2L41 1.5L42.5 1Z" stroke="#BBBE28"/>
<path d="M32.8656 63.255L31.0195 56.5088L46.2084 52.5238L48.0545 59.27L32.8656 63.255Z" stroke="url(#paint1_linear)"/>
<path d="M14.4843 68.0794V32.2064H7.99988V68.0794H14.4843ZM14.4843 68.0794H49.6621V73H14.4843V68.0794Z" stroke="url(#paint2_linear)"/>
<defs>
<linearGradient id="paint0_linear" x1="34.9595" y1="44.0267" x2="42.9582" y2="71.1434" gradientUnits="userSpaceOnUse">
<stop stop-color="#1E6DDD"/>
<stop offset="0.586955" stop-color="#5B1EDD" stop-opacity="0.79"/>
</linearGradient>
<linearGradient id="paint1_linear" x1="39.3408" y1="57.1726" x2="40.5688" y2="61.8529" gradientUnits="userSpaceOnUse">
<stop stop-color="#1E6DDD"/>
<stop offset="0.586955" stop-color="#5B1EDD" stop-opacity="0.79"/>
</linearGradient>
<linearGradient id="paint2_linear" x1="28.831" y1="48.2686" x2="28.831" y2="76.4918" gradientUnits="userSpaceOnUse">
<stop stop-color="#1E6DDD"/>
<stop offset="0.586955" stop-color="#5B1EDD" stop-opacity="0.79"/>
</linearGradient>
</defs>
</svg>
