<svg width="252" height="223" viewBox="0 0 252 223" fill="none" xmlns="http://www.w3.org/2000/svg">
<path d="M99.5 42L78 87" stroke="white" stroke-width="2"/>
<path d="M100 51L116 67.5L100 78" stroke="white" stroke-width="2"/>
<path d="M77.5 51L60 69L77.5 78" stroke="white" stroke-width="2"/>
<path d="M1 132V1H200V132M1 132H25.875M1 132L7.0625 143.188M200 132L206.25 143.188M200 132H187.562M25.25 176.75H225M25.25 176.75L19.1875 165.562M25.25 176.75L31.3125 187.938M225 176.75L218.75 165.562M225 176.75L231.25 187.938M100.5 132L149.75 221.5M100.5 132H75.625M100.5 132H125.375M149.75 221.5H124.688M149.75 221.5H168.5M50.75 132L99.625 221.5M50.75 132H25.875M50.75 132H75.625M99.625 221.5H74.5625M99.625 221.5H124.688M150.25 132L199.875 221.5M150.25 132H125.375M150.25 132H162.688M199.875 221.5H168.5M199.875 221.5H212.406M37.375 199.125H237.5M37.375 199.125L31.3125 187.938M37.375 199.125L43.4375 210.312M237.5 199.125L231.25 187.938M237.5 199.125L243.75 210.312M13.125 154.375H212.5M13.125 154.375L7.0625 143.188M13.125 154.375L19.1875 165.562M212.5 154.375L206.25 143.188M212.5 154.375L218.75 165.562M25.875 132L74.5625 221.5M74.5625 221.5H49.5L43.4375 210.312M75.625 132L124.688 221.5M125.375 132L168.5 221.5M175.125 132L224.938 221.5M175.125 132H187.562M175.125 132H162.688M224.938 221.5H237.469M224.938 221.5H212.406M7.0625 143.188H206.25M19.1875 165.562H218.75M31.3125 187.938H231.25M43.4375 210.312H243.75M243.75 210.312L250 221.5H237.469M187.562 132L237.469 221.5M162.688 132L212.406 221.5M37.375 29.5V95H150.25V29.5H37.375Z" stroke="white" stroke-width="2"/>
</svg>
