<svg width="152" height="152" viewBox="0 0 152 152" fill="none" xmlns="http://www.w3.org/2000/svg">
<path d="M4.00587 55.4721L1.73314 65.2229V65.3695L1.43988 67.4956L1.14663 70.868L1 73.7273V76.2199L1.14663 80.6188L1.43988 84.5044L2.17302 89.4164L3.27273 94.2551L4.95894 99.9003L7.52493 106.425L10.6041 112.51L13.4633 117.422L17.4223 122.554L20.9413 126.88L24.0938 130.106L28.0528 133.625L32.085 136.777L36.7038 139.783L41.0293 142.349L44.8416 144.255L49.607 146.308L52.5396 147.334L56.8651 148.581L60.5308 149.46L64.563 150.267L67.2757 150.56L68.9619 150.707L70.5015 150.853L72.4809 151H78.1261L83.1847 150.78L85.4575 150.56L87.6569 150.267L88.6833 150.047L89.563 149.9L90.8094 149.534L92.2757 149.24L94.3284 148.801L96.4545 148.287L97.6276 147.921L99.827 147.261L101.733 146.674L104.226 145.721L106.645 144.695L110.457 142.789L113.537 141.103L116.103 139.563L118.449 137.95L122.041 135.457L124.974 133.038L130.032 128.346L131.645 126.66L133.405 124.46L135.311 122.261L137.07 119.768L138.683 117.569L140.223 115.296L141.909 112.364L143.522 109.138L144.988 105.985L146.308 102.979L147.188 100.413L147.848 98.2874L148.507 96.088L149.387 93.0088L149.607 92.2023L149.9 91.0293L150.12 89.3431L150.413 87.3636L150.78 85.3108L151 81.4252V75.9267V72.4809V69.4751L150.34 65.0029L149.46 60.1642L147.554 52.7595L145.062 46.2346L142.422 40.8094L138.757 34.5777L132.232 26.0733L126.147 19.9883L118.522 13.9765L112.584 10.2375L105.619 6.8651L98.2141 4.15249L92.8622 2.6129L86.6305 1.5132L80.0323 1H72.5543L67.2757 1.5132L60.2375 2.6129L51 5.32551L43.6686 8.25806L36.6305 11.8504L29.5924 17.0557L21.9677 23.9472L18.8152 27.9062L14.8563 32.8915L11.044 38.8299L7.08504 47.261L4.00587 55.4721Z" fill="url(#paint0_linear)" stroke="white" stroke-width="2"/>
<path d="M38.1572 48.4251L40.2527 42.7575H40.8074L42.4099 44.8647L43.8891 46.5359L45.6764 48.4251L48.8814 51.0409L52.641 53.2207L57.2635 55.4732L62.2558 57.0718L66.6317 57.7257L70.2065 58.2343H75.5686L75.1988 57.0718V54.3833L75.5686 51.5495L76.0616 49.079L77.5408 45.5186L79.2666 42.5395L81.3621 40.4323L83.8274 38.3252L86.9091 36.7266L89.621 36H93.319L95.9692 36.7266L98.8659 38.3252L101.146 40.4323L102.749 42.1035L104.783 45.1553L107.926 42.7575L111.193 40.8683L113.966 38.9064L113.35 40.4323L109.713 47.4078L106.139 51.5495L113.35 49.297L116 48.4251L113.966 52.2761L110.7 55.6912L107.926 58.525V66.5177L106.139 76.7629L102.995 86.8629L97.6333 97.2534L89.5593 106.336L81.3621 111.277L75.0755 114.038L70.0216 114.983L61.4545 116L52.2712 114.983L43.2111 112.73L37.4176 109.606L36 108.007L43.2111 107.208L47.8336 106.336L52.2712 104.447L56.1541 102.485L59.0508 100.378L56.1541 99.5059L51.1002 97.2534L47.8336 94.9282L44.1972 91.0772L43.2111 87.3715L47.8336 88.2434H51.1002H54.3667L56.1541 86.8629L50.3606 83.8111L45.7997 80.5413L42.7797 76.7629L40.2527 73.2025L38.1572 69.3515L37.4176 64.4832L42.7797 67.208H44.9985L44.1972 66.5177L40.2527 62.376L38.1572 57.2171L37.4176 52.2761L38.1572 48.4251Z" fill="white"/>
<defs>
<linearGradient id="paint0_linear" x1="76" y1="60.0614" x2="76" y2="163.839" gradientUnits="userSpaceOnUse">
<stop stop-color="#1E6DDD"/>
<stop offset="0.586955" stop-color="#5B1EDD" stop-opacity="0.79"/>
</linearGradient>
</defs>
</svg>
