<svg width="152" height="152" viewBox="0 0 152 152" fill="none" xmlns="http://www.w3.org/2000/svg">
<path d="M36.4869 12.2641L27.3109 19.0225L24.0337 22.0263L21.8801 24.373L20.4757 25.6871L18.7903 27.6583L16.7303 30.2866L14.764 32.6333L13.7341 34.4168L11.5805 37.7021L9.89513 40.3304L8.49064 43.3342L7.17978 46.1502L5.77528 49.4355L4.46442 53.0964L3.43446 56.7572L2.59176 59.5732L2.02996 63.7972L1.37453 67.9274V69.4293L1 72.433V80.224L1.37453 84.2603L1.93633 88.5782L2.40449 91.3004L3.24719 94.7735L4.27715 97.8711L5.30712 101.156L6.99251 105.662L9.42697 110.543L11.6742 114.767L13.9213 118.334L16.1685 121.62L18.7903 124.811L21.3184 127.721L23.8464 130.161L26.3745 132.602L29.3708 135.043L33.1161 137.952L37.4232 140.487L42.1985 143.397L48.2846 146.025L55.2135 148.372L59.5206 149.498L64.015 150.249L68.1348 150.718L72.6292 151H77.2172H80.0262L82.6479 150.718H84.0524L87.3296 150.249L89.2959 149.967L92.8539 149.31L96.0375 148.466L102.966 146.119L106.805 144.429L111.674 142.176L116.918 139.079L122.348 135.136L126.281 131.663L130.307 127.627L133.959 123.591L137.236 119.179L140.888 113.453L144.165 107.07L146.88 100.218L149.221 90.4556L150.345 84.5419L151 78.0651V74.0288L150.345 68.7722L149.221 60.7935L147.442 53.5657L145.288 47.7459L143.603 44.179L141.169 39.3917L138.64 35.0738L135.644 31.1314L133.584 28.3154L130.026 24.1852L126.375 20.6183L123.753 18.3655L120.944 16.3004L117.292 13.5782L114.109 11.5131L111.206 9.82353L108.584 8.60325L105.588 7.10138L102.217 5.50563L99.4082 4.66083L95.4757 3.62829L89.6704 2.31414L83.9588 1.5632L79.839 1H73.7528L67.9476 1.5632L61.8614 2.31414L56.3371 3.62829L50.5318 5.50563L45.6629 7.28911L40.5131 10.0113L36.4869 12.2641Z" fill="url(#paint0_linear)" stroke="white" stroke-width="2"/>
<path d="M59.5 92V61.5L101.5 77.5L59.5 92Z" fill="white" stroke="white" stroke-width="2"/>
<defs>
<linearGradient id="paint0_linear" x1="76" y1="60.0614" x2="76" y2="163.839" gradientUnits="userSpaceOnUse">
<stop stop-color="#1E6DDD"/>
<stop offset="0.586955" stop-color="#5B1EDD" stop-opacity="0.79"/>
</linearGradient>
</defs>
</svg>
