<svg width="152" height="152" viewBox="0 0 152 152" fill="none" xmlns="http://www.w3.org/2000/svg">
<path d="M4.00587 55.4721L1.73314 65.2229V65.3695L1.43988 67.4956L1.14663 70.868L1 73.7273V76.2199L1.14663 80.6188L1.43988 84.5044L2.17302 89.4164L3.27273 94.2551L4.95894 99.9003L7.52493 106.425L10.6041 112.51L13.4633 117.422L17.4223 122.554L20.9413 126.88L24.0938 130.106L28.0528 133.625L32.085 136.777L36.7038 139.783L41.0293 142.349L44.8416 144.255L49.607 146.308L52.5396 147.334L56.8651 148.581L60.5308 149.46L64.563 150.267L67.2757 150.56L68.9619 150.707L70.5015 150.853L72.4809 151H78.1261L83.1847 150.78L85.4575 150.56L87.6569 150.267L88.6833 150.047L89.563 149.9L90.8094 149.534L92.2757 149.24L94.3284 148.801L96.4545 148.287L97.6276 147.921L99.827 147.261L101.733 146.674L104.226 145.721L106.645 144.695L110.457 142.789L113.537 141.103L116.103 139.563L118.449 137.95L122.041 135.457L124.974 133.038L130.032 128.346L131.645 126.66L133.405 124.46L135.311 122.261L137.07 119.768L138.683 117.569L140.223 115.296L141.909 112.364L143.522 109.138L144.988 105.985L146.308 102.979L147.188 100.413L147.848 98.2874L148.507 96.088L149.387 93.0088L149.607 92.2023L149.9 91.0293L150.12 89.3431L150.413 87.3636L150.78 85.3108L151 81.4252V75.9267V72.4809V69.4751L150.34 65.0029L149.46 60.1642L147.554 52.7595L145.062 46.2346L142.422 40.8094L138.757 34.5777L132.232 26.0733L126.147 19.9883L118.522 13.9765L112.584 10.2375L105.619 6.8651L98.2141 4.15249L92.8622 2.6129L86.6305 1.5132L80.0323 1H72.5543L67.2757 1.5132L60.2375 2.6129L51 5.32551L43.6686 8.25806L36.6305 11.8504L29.5924 17.0557L21.9677 23.9472L18.8152 27.9062L14.8563 32.8915L11.044 38.8299L7.08504 47.261L4.00587 55.4721Z" fill="url(#paint0_linear)" stroke="white" stroke-width="2"/>
<path d="M22 67L23 58L24 50L25.5 46L29 42L33.5 39.5L42 38L58 37H74H89.5L101.5 38H108.5L119 39.5L123.5 42L127 45.5L129 51.5L130.5 57.5V80.5V88.5L129 98.5L128 104L124 109.5L119 112L108 113.5L95.5 114.5H81.5H70.5L57.5 113.5H47L39 112.5L33 112L27 108L24 102L23 96.5L22 90V85V79V72V67Z" fill="white" stroke="white"/>
<path d="M58 94V64L106 80.4151L58 94Z" fill="url(#paint1_linear)" stroke="white"/>
<defs>
<linearGradient id="paint0_linear" x1="76" y1="60.0614" x2="76" y2="163.839" gradientUnits="userSpaceOnUse">
<stop stop-color="#1E6DDD"/>
<stop offset="0.586955" stop-color="#5B1EDD" stop-opacity="0.79"/>
</linearGradient>
<linearGradient id="paint1_linear" x1="82" y1="75.8123" x2="82" y2="96.5679" gradientUnits="userSpaceOnUse">
<stop stop-color="#1E6DDD"/>
<stop offset="0.586955" stop-color="#5B1EDD" stop-opacity="0.79"/>
</linearGradient>
</defs>
</svg>
