<svg width="1440" height="173" viewBox="0 0 1440 173" fill="none" xmlns="http://www.w3.org/2000/svg">
<g id="Waves">
<path id="wave3" d="M655.5 55.5001C482 209.121 362.5 -134.501 55.5 100.499L-6 172.5H1440V100.5C1407.5 188.233 1196.66 -79.5005 1074.5 100.5C984.522 233.077 829 -98.1211 655.5 55.5001Z" fill="#7F3FC0"/>
<path id="wave2" d="M566.5 41.5973C393 195.218 273.5 -148.404 -33.5 86.5966L-95 158.597H1351V86.5968C1318.5 174.331 1107.66 -93.4033 985.501 86.5968C895.522 219.174 740 -112.024 566.5 41.5973Z" fill="#7F3FC0" fill-opacity="0.8"/>
<path id="wave1" d="M757.5 41.5973C584 195.218 464.5 -148.404 157.5 86.5966L96 158.597H1542V86.5968C1509.5 174.331 1298.66 -93.4033 1176.5 86.5968C1086.52 219.174 931 -112.024 757.5 41.5973Z" fill="#7F3FC0" fill-opacity="0.5"/>
</g>
</svg>
